<svg xmlns="http://www.w3.org/2000/svg" width="1200" height="800" viewBox="0 0 1200 800">
<defs>
<linearGradient id="paper" x1="0" y1="0" x2="1" y2="1">
  <stop offset="0" stop-color="#fbfaf5"/><stop offset="1" stop-color="#eee9dc"/>
</linearGradient>
<linearGradient id="green" x1="0" y1="0" x2="1" y2="1">
  <stop offset="0" stop-color="#18745b"/><stop offset="1" stop-color="#0a493b"/>
</linearGradient>
<linearGradient id="blue" x1="0" y1="0" x2="1" y2="1">
  <stop offset="0" stop-color="#48bde9"/><stop offset="1" stop-color="#1178b5"/>
</linearGradient>
<filter id="shadow" x="-30%" y="-30%" width="160%" height="160%">
  <feDropShadow dx="0" dy="14" stdDeviation="18" flood-color="#16362e" flood-opacity=".18"/>
</filter>
<filter id="soft" x="-30%" y="-30%" width="160%" height="160%">
  <feGaussianBlur stdDeviation="18"/>
</filter>

<radialGradient id="ocean" cx="35%" cy="30%"><stop stop-color="#55bde3"/><stop offset="1" stop-color="#116a9e"/></radialGradient>
</defs>
<rect width="1200" height="800" fill="url(#paper)"/>


<circle cx="600" cy="400" r="315" fill="url(#ocean)" filter="url(#shadow)"/>
<circle cx="600" cy="400" r="315" fill="none" stroke="#163f56" stroke-width="8"/>
<!-- globe grid -->
<g fill="none" stroke="#d6f1f7" stroke-width="3" opacity=".34">
 <ellipse cx="600" cy="400" rx="190" ry="315"/><ellipse cx="600" cy="400" rx="70" ry="315"/>
 <ellipse cx="600" cy="400" rx="315" ry="230"/><ellipse cx="600" cy="400" rx="315" ry="105"/>
 <path d="M285 400h630"/>
</g>
<!-- stylized, recognizable land masses -->
<g fill="#72ad62" stroke="#376f4b" stroke-width="5" stroke-linejoin="round">
 <!-- North America --> <path d="M330 235l80-70 105 18 45 62-48 36-26 76-64 30-55-54-49-20z"/>
 <!-- South America --> <path d="M493 391l75 23 35 68-25 70-29 112-42-35-24-83 18-66-29-48z"/>
 <!-- Europe --> <path d="M610 237l47-30 55 25-8 45-52 25-48-21z"/>
 <!-- Africa --> <path d="M612 311l91-20 64 75-21 115-61 99-47-52-31-119-41-54z"/>
 <!-- Asia --> <path d="M690 222l87-56 111 45 56 75-35 78-87 5-49-43-75-20z"/>
 <!-- Australia --> <path d="M824 512l82-16 63 51-34 69-92-8-31-48z"/>
 <!-- Greenland --> <path d="M527 130l56-34 37 33-23 55-53-8z" fill="#dce8d5"/>
 <!-- Antarctica --> <path d="M410 671q190 72 380 0l-35 50q-155 61-310 0z" fill="#eef5ee"/>
</g>
<!-- compass rose -->
<g transform="translate(1000 610)" filter="url(#shadow)"><circle r="70" fill="#fff" opacity=".9"/><path d="M0-55 14-10 0 0-14-10Z" fill="#d8483e"/><path d="M0 55 14 10 0 0-14 10Z" fill="#153f56"/><path d="M-55 0-10-14 0 0-10 14ZM55 0 10-14 0 0 10 14Z" fill="#153f56"/></g>
</svg>